<svg width="387" height="91" viewBox="0 0 387 91" fill="none" xmlns="http://www.w3.org/2000/svg">
<path fill-rule="evenodd" clip-rule="evenodd" d="M71.1 38.7H86.48V36.38H85.1C83.51 36.38 82.49 35.74 81.98 34.44L68.53 0.139999L68.48 0H66.49L53.69 31.94C53 33.67 52.24 34.85 51.43 35.46C50.63 36.06 49.51 36.37 48.11 36.37H47.9V38.7H61.91V36.37H60.43C59.01 36.37 57.93 36.09 57.2 35.53C56.48 34.98 56.13 34.34 56.13 33.57C56.13 32.9 56.35 31.95 56.8 30.76L58.49 26.33H73.02L76.07 34.15C76.18 34.45 76.24 34.73 76.24 34.99C76.24 35.4 76.06 35.69 75.7 35.89C75.1 36.21 74.02 36.37 72.51 36.37H71.1V38.7ZM72.11 23.92H59.5L65.91 8.00999L72.11 23.92ZM0 38.7H3.73L15 0.789993H11.3L0.0800018 38.42L0 38.7ZM39.07 38.7H39.09L39.07 38.71V38.7ZM39.07 36.38V38.7H20.64V36.37H24.62C25.31 36.37 25.82 36.24 26.12 35.98C26.42 35.72 26.57 35.38 26.57 34.94V5.06C26.57 4.37 26.38 3.88 25.99 3.58C25.59 3.27 24.79 3.12 23.62 3.12H20.63V0.789993H39.34C43.55 0.789993 46.81 1.75999 49.04 3.67999C51.28 5.61 52.41 8.16 52.41 11.27C52.41 14.38 51.36 16.79 49.29 18.43C46.48 20.67 42.97 21.8 38.85 21.8H32.38V34.39C32.38 35.07 32.54 35.55 32.84 35.83C33.27 36.19 33.86 36.38 34.6 36.38H39.07ZM37.27 19.51H32.4L32.39 19.5V5.03999C32.39 4.24001 32.62 3.67 33.05 3.36C33.36 3.14 34.22 2.87 36.48 2.87C39.27 2.87 41.29 3.14999 42.5 3.69C43.69 4.22 44.61 5.06 45.22 6.17C45.85 7.28999 46.16 8.93001 46.16 11.05C46.16 14.07 45.46 16.26 44.09 17.55C42.71 18.85 40.42 19.51 37.27 19.51ZM114.74 38.1C115.68 38.75 116.8 39.08 118.07 39.08V39.09C122.1 39.09 124.31 36.12 124.65 30.27V30.04H122.49V30.24C122.4 32.14 122.13 33.47 121.7 34.21C120.89 35.59 119.97 35.55 119.18 34.41C118.62 33.63 118.08 32.13 117.58 29.95C116.85 26.81 116.22 24.78 115.66 23.75C115.1 22.72 114.34 21.87 113.41 21.22C112.62 20.67 111.28 20.11 109.41 19.55C112.2 19.2 114.31 18.68 115.7 17.99C117.27 17.21 118.49 16.14 119.33 14.82C120.17 13.5 120.59 11.97 120.59 10.28C120.59 7.46001 119.52 5.14 117.41 3.39999C115.31 1.67 112.33 0.789993 108.54 0.789993H88.96V3.12H92.85C93.59 3.12 94.14 3.25999 94.49 3.55C94.83 3.83 95 4.25 95 4.83V34.77C95 35.27 94.84 35.65 94.51 35.93C94.17 36.22 93.62 36.36 92.86 36.36H88.97V38.69H106.81V36.36H103C102.19 36.36 101.59 36.22 101.23 35.93C100.97 35.72 100.83 35.33 100.83 34.78V20.27H103.68C105.26 20.27 106.64 20.55 107.77 21.11C108.89 21.66 109.73 22.4 110.25 23.31C110.78 24.23 111.17 25.81 111.42 28.02C111.86 31.94 112.26 34.3 112.62 35.24C113.09 36.49 113.81 37.45 114.74 38.1ZM105.05 18.03H100.83L100.84 18.01V4.74001C100.84 4.14999 101.04 3.74001 101.44 3.5C101.74 3.32001 102.6 3.11 105.03 3.11C108.01 3.11 110.03 3.32001 111.03 3.73C112.01 4.13 112.82 4.89 113.42 5.99001C114.04 7.10001 114.35 8.64 114.35 10.57C114.35 13.35 113.53 15.31 111.92 16.38C110.28 17.48 107.97 18.03 105.05 18.03ZM132.98 38.7H150.82L150.83 38.71V36.38H146.84C146.09 36.38 145.54 36.25 145.23 36C144.93 35.75 144.78 35.36 144.78 34.82V4.86C144.78 4.14 144.94 3.63 145.26 3.34C145.58 3.03999 146.21 2.89 147.13 2.89C151.86 2.89 154.83 7.03 155.96 15.2L155.98 15.38H158.14L157.38 0.779999H126.53L125.7 15.38H127.96L127.98 15.2C128.57 11.15 129.53 8.14 130.86 6.27C132.45 4.03 134.46 2.89 136.82 2.89C137.63 2.89 138.21 3.03999 138.56 3.33C138.9 3.62 139.07 4.03999 139.07 4.62V35.02C139.07 35.43 138.94 35.75 138.68 36C138.42 36.24 138.02 36.37 137.51 36.37H132.98V38.7ZM161.81 38.7H179.52V36.37H175.99C174.98 36.37 174.29 36.2 173.93 35.85C173.75 35.69 173.54 35.21 173.54 33.88V5.49001C173.54 4.24001 173.79 3.75 174 3.55C174.21 3.35001 174.79 3.11 176.35 3.11H179.53V0.789993H161.81V3.11H164.96C166.17 3.11 167 3.28999 167.43 3.64999C167.57 3.77 167.81 4.17 167.81 5.49001V33.88C167.81 35.2 167.57 35.73 167.37 35.93C167.17 36.13 166.64 36.37 165.29 36.37H161.81V38.7ZM184.74 38.7H216.38L217.27 24.08V23.85H215.09L215.06 24.03C214.26 28.58 212.97 31.81 211.23 33.64C209.5 35.45 207.24 36.37 204.51 36.37H199.25C198.11 36.37 197.35 36.23 196.99 35.97C196.65 35.72 196.48 35.27 196.48 34.63V5.05C196.48 4.36 196.62 3.86 196.89 3.56C197.16 3.25999 197.6 3.11 198.19 3.11H202.56V0.789993H184.74V3.11H188.76C189.4 3.11 189.88 3.25999 190.19 3.53999C190.5 3.82001 190.65 4.23 190.65 4.8V34.07C190.65 34.88 190.46 35.48 190.08 35.83C189.7 36.19 189.01 36.37 188.02 36.37H184.74V38.7ZM219.65 38.7H251.29L252.16 24.08L252.18 23.85H250L249.97 24.03C249.17 28.58 247.88 31.81 246.14 33.64C244.41 35.45 242.15 36.37 239.42 36.37H234.16C233.02 36.37 232.26 36.23 231.9 35.97C231.56 35.72 231.39 35.27 231.39 34.63V5.05C231.39 4.36 231.53 3.86 231.8 3.56C232.07 3.25999 232.51 3.11 233.1 3.11H237.47V0.789993H219.65V3.11H223.67C224.31 3.11 224.79 3.25999 225.1 3.53999C225.4 3.82001 225.56 4.24001 225.56 4.8V34.07C225.56 34.88 225.37 35.48 224.99 35.83C224.61 36.19 223.92 36.37 222.93 36.37H219.65V38.7ZM255.75 38.7H287.07L287.08 38.69L287.73 24.3H285.49L285.47 24.49C284.53 32.38 280.94 36.37 274.8 36.37H269C268.2 36.37 267.64 36.24 267.32 35.99C267.01 35.74 266.86 35.38 266.86 34.91V20.22H269.58C271.38 20.22 272.82 20.82 273.86 22.01C274.91 23.21 275.48 25.24 275.57 28.05V28.26H277.74V10.47H275.56V10.68C275.48 13.17 274.91 15.03 273.88 16.22C272.86 17.4 271.51 18 269.86 18H266.86V4.86C266.86 4.25999 266.99 3.82001 267.26 3.53999C267.52 3.25999 267.9 3.12 268.44 3.12H275.78C278.05 3.12 279.92 3.89999 281.33 5.42999C282.76 6.99001 283.81 9.75999 284.48 13.69L284.51 13.87H286.62L285.89 0.990005V0.789993H255.76V3.11H259.04C259.75 3.11 260.26 3.25999 260.57 3.53999C260.88 3.82001 261.03 4.25 261.03 4.85001V34.56C261.03 35.15 260.86 35.59 260.5 35.9C260.13 36.21 259.47 36.37 258.53 36.37H255.75V38.7ZM48.09 90.47H50.14H50.15V75.93C50.15 75.37 50.33 74.96 50.68 74.67C51.05 74.37 51.69 74.22 52.58 74.22H54.92V72.02H38.77V74.22H42.15C43.07 74.22 43.75 74.36 44.14 74.64C44.51 74.91 44.69 75.27 44.69 75.76V79.28C44.69 81.83 43.89 83.93 42.33 85.54C40.77 87.14 38.52 87.96 35.64 87.96C33.52 87.96 31.65 87.39 30.07 86.27C28.49 85.14 27.23 83.36 26.33 80.96C25.42 78.54 24.96 75.29 24.96 70.86C24.96 66.43 25.42 62.96 26.33 60.52C27.23 58.1 28.54 56.27 30.22 55.07C31.89 53.87 33.82 53.26 35.94 53.26C38.7 53.26 41.19 54.46 43.33 56.85C45.02 58.75 46.51 61.86 47.76 66.11L47.8 66.26H49.84L48.87 50.88H46.85L44.84 54.52C43.09 53.17 41.48 52.22 40.08 51.7C38.61 51.16 37.05 50.88 35.45 50.88C32.63 50.88 29.81 51.77 27.06 53.53C24.32 55.28 22.12 57.67 20.54 60.65C18.96 63.63 18.16 67.05 18.16 70.79C18.16 74.53 18.96 77.93 20.53 80.89C22.11 83.86 24.28 86.19 27 87.83C29.71 89.46 32.7 90.29 35.89 90.29C38.13 90.29 40.17 89.75 41.94 88.7C43.6 87.72 45.06 86.26 46.29 84.35C46.9 86.27 47.49 88.27 48.05 90.31L48.09 90.47ZM64.35 89.58H81.99V87.26H78.56C77.64 87.26 76.95 87.1 76.51 86.77C76.21 86.54 76.06 86.16 76.06 85.6V73.79L84.7 58C85.55 56.46 86.44 55.39 87.35 54.84C88.26 54.29 89.52 54.01 91.1 54.01H91.31V51.68H76.59V54.01H78.55C79.56 54.01 80.34 54.26 80.87 54.74C81.4 55.22 81.66 55.86 81.66 56.68C81.66 57.3 81.52 57.88 81.23 58.4L74.56 70.67L65.24 56.2C65.02 55.88 64.92 55.53 64.92 55.13C64.92 54.79 65.1 54.53 65.49 54.33C65.78 54.18 66.51 54 68.35 54H70.38V51.67H53.53V54H53.74C55.29 54.03 56.4 54.2 57.05 54.5C57.68 54.79 58.25 55.31 58.73 56.05L70.33 74.12V85.59C70.33 86.11 70.16 86.51 69.8 86.8C69.44 87.1 68.82 87.25 67.96 87.25H64.35V89.58ZM123.96 89.58H141.55H141.56V87.25H138.48C137.42 87.25 136.67 87.1 136.25 86.81C135.85 86.53 135.65 86.14 135.65 85.62V55.94C135.65 55.22 135.81 54.71 136.14 54.43C136.48 54.15 137.18 54 138.22 54H141.55V51.67H128.42L118.25 80.86L107.2 51.67H94.35V54H97.76C98.77 54 99.46 54.14 99.81 54.4C100.15 54.66 100.31 55.06 100.31 55.64V81.49C100.31 83.57 99.91 85.03 99.13 85.83C98.34 86.63 96.8 87.11 94.55 87.27H94.35V89.59H108.92V87.26H108.72C107.02 87.16 105.8 86.9 105.08 86.49C104.37 86.08 103.82 85.49 103.43 84.73C103.04 83.96 102.84 82.77 102.84 81.19V55.12L115.77 89.45L115.82 89.59H117.83L129.86 55.05V85.62C129.86 86.09 129.67 86.47 129.28 86.78C128.89 87.09 128.24 87.25 127.38 87.25H123.96V89.58ZM177.13 89.58H179.83L179.84 89.57V59.57C179.84 58.45 180.08 57.4 180.55 56.45C181.02 55.51 181.57 54.86 182.19 54.51C182.81 54.16 183.79 53.98 185.09 53.98H185.3V51.65H171.74V53.98H171.95C173.66 54.01 174.96 54.48 175.81 55.38C176.74 56.37 177.22 57.92 177.22 60V80.68L154.99 51.73L154.93 51.65H145.66V53.98H147.57C148.3 53.98 148.91 54.09 149.37 54.31C149.59 54.42 150.08 54.78 151.1 55.9L151.49 56.33V81.64C151.49 83.17 150.98 84.49 149.98 85.55C148.98 86.61 147.6 87.18 145.87 87.25H145.66V89.58H160.39V87.25H160.18C158.09 87.22 156.52 86.71 155.54 85.75C154.56 84.79 154.06 83.31 154.06 81.33V59.34L177.07 89.5L177.13 89.58ZM206.58 89.58H221.96V89.57V87.24H220.58C218.99 87.24 217.97 86.6 217.46 85.3L204.02 51L203.97 50.86H201.98L189.18 82.81C188.49 84.54 187.73 85.72 186.92 86.33C186.12 86.93 185 87.24 183.6 87.24H183.39V89.57H197.4V87.24H195.92C194.5 87.24 193.42 86.96 192.69 86.4C191.97 85.84 191.62 85.21 191.62 84.44C191.62 83.76 191.84 82.82 192.29 81.63L193.98 77.21H208.52L211.57 85.03C211.68 85.32 211.73 85.6 211.73 85.87C211.73 86.28 211.55 86.57 211.18 86.77C210.58 87.09 209.5 87.25 207.99 87.25H206.58V89.58ZM207.57 74.8H194.96L201.37 58.89L207.57 74.8ZM230.59 86.63C233.44 89.06 236.82 90.29 240.65 90.29L240.64 90.3C244.28 90.3 247.29 89.16 249.6 86.91C251.9 84.65 253.07 81.77 253.07 78.35C253.07 76.43 252.64 74.73 251.8 73.29C250.96 71.86 249.66 70.65 247.95 69.7C246.25 68.76 243.28 67.82 239.11 66.92C236.17 66.29 234.14 65.68 233.09 65.13C232.05 64.58 231.27 63.86 230.75 63C230.23 62.13 229.97 61.11 229.97 59.95C229.97 58.09 230.66 56.5 232.03 55.21C233.41 53.91 235.2 53.26 237.36 53.26C239.97 53.26 242.3 54.21 244.3 56.09C246.31 57.98 247.86 61.03 248.89 65.16L248.93 65.32H250.99L250.83 51.23H248.66L246.45 54.39C244.98 53.16 243.54 52.26 242.16 51.72C240.73 51.16 239.19 50.87 237.6 50.87C234.27 50.87 231.5 51.95 229.37 54.09C227.23 56.23 226.15 59.13 226.15 62.34C226.15 65.55 227.24 68.07 229.4 69.83C230.92 71.07 233.8 72.19 237.95 73.17C241.7 74.05 244.24 74.8 245.49 75.4C246.74 76 247.65 76.74 248.22 77.61C248.78 78.47 249.07 79.5 249.07 80.65C249.07 82.69 248.3 84.45 246.77 85.88C245.24 87.31 243.23 88.04 240.8 88.04C237.78 88.04 235.03 86.89 232.61 84.62C230.19 82.35 228.61 79.2 227.91 75.26L227.88 75.08H225.66V90.03H227.8L230.59 86.63ZM255.35 89.58H273.06H273.07V87.25H269.54C268.53 87.25 267.84 87.08 267.48 86.73C267.3 86.56 267.09 86.09 267.09 84.76V56.37C267.09 55.13 267.34 54.64 267.54 54.44C267.75 54.24 268.33 54 269.89 54H273.07V51.67H255.36V54H258.51C259.72 54 260.55 54.18 260.98 54.53C261.12 54.65 261.36 55.05 261.36 56.37V84.76C261.36 86.08 261.12 86.6 260.91 86.81C260.71 87.01 260.18 87.25 258.83 87.25H255.35V89.58ZM288.55 88.69C290.7 89.75 293.69 90.29 297.42 90.29H297.44C301.77 90.29 305.28 89.05 307.9 86.61C310.24 84.43 311.42 81.27 311.42 77.2V58.77C311.42 57.21 311.79 56.01 312.53 55.2C313.26 54.4 314.4 53.99 315.92 53.99H317.15V51.66H302.55V53.99H302.76C304.15 53.99 305.15 54.1 305.73 54.3C306.3 54.5 306.78 54.81 307.15 55.22C307.52 55.63 307.81 56.22 308.01 56.97C308.21 57.73 308.32 58.88 308.32 60.37V77.58C308.32 80.46 307.44 82.8 305.7 84.51C303.96 86.23 301.39 87.1 298.05 87.1C295.64 87.1 293.67 86.61 292.18 85.64C290.7 84.68 289.66 83.37 289.11 81.75C288.73 80.65 288.54 78.98 288.54 76.8V55.64C288.54 55.07 288.7 54.67 289.02 54.41C289.36 54.14 289.97 54 290.84 54H294.52V51.67H276.78V54H280.55C281.28 54 281.84 54.15 282.19 54.44C282.54 54.73 282.71 55.12 282.71 55.63V78.27C282.71 80.57 283.08 82.51 283.82 84.04C284.79 86.05 286.39 87.62 288.55 88.69ZM349.41 89.58H367H367.01V87.25H363.93C362.87 87.25 362.12 87.1 361.7 86.81C361.3 86.53 361.1 86.14 361.1 85.62V55.94C361.1 55.22 361.26 54.71 361.59 54.43C361.93 54.15 362.63 54 363.67 54H367V51.67H353.87L343.7 80.86L332.65 51.67H319.81V54H323.22C324.24 54 324.92 54.14 325.27 54.4C325.61 54.66 325.77 55.06 325.77 55.64V81.49C325.77 83.57 325.37 85.03 324.59 85.83C323.8 86.63 322.26 87.11 320.01 87.27H319.81V89.59H334.38V87.26H334.18C332.47 87.16 331.25 86.9 330.53 86.49C329.82 86.08 329.27 85.49 328.88 84.73C328.5 83.96 328.3 82.77 328.3 81.19V55.12L341.23 89.45L341.28 89.59H343.29L355.32 55.05V85.62C355.32 86.09 355.13 86.47 354.74 86.78C354.34 87.09 353.69 87.25 352.83 87.25H349.41V89.58ZM371.54 89.58H375.26H375.27L386.54 51.66H382.84L371.54 89.58Z" fill="black"/>
</svg>
